<svg width="419" height="141" viewBox="0 0 419 141" fill="none" xmlns="http://www.w3.org/2000/svg">
<path d="M416.925 37.5782C418.198 45.5714 413.938 54.2695 404.637 63.2189C395.363 72.1437 381.252 81.1392 363.314 89.68C327.45 106.756 276.501 121.914 218.975 131.077C161.449 140.241 108.312 141.663 68.9174 136.576C49.2135 134.031 33.0061 129.865 21.4175 124.264C9.79698 118.647 3.04481 111.703 1.77154 103.71C0.498261 95.7164 4.75878 87.0184 14.059 78.0689C23.3336 69.1441 37.4445 60.1487 55.3826 51.6079C91.2465 34.5322 142.195 19.3742 199.721 10.2106C257.248 1.04696 310.385 -0.375149 349.779 4.71231C369.483 7.25692 385.69 11.4229 397.279 17.0243C408.899 22.6412 415.652 29.585 416.925 37.5782Z" stroke="url(#paint0_linear_26_43)" stroke-width="2"/>
<defs>
<linearGradient id="paint0_linear_26_43" x1="199.564" y1="9.22301" x2="219.132" y2="132.065" gradientUnits="userSpaceOnUse">
<stop stop-color="#FF97CF"/>
<stop offset="1" stop-color="#ECECEC"/>
</linearGradient>
</defs>
</svg>
